<svg width="151" height="53" viewBox="0 0 151 53" fill="#FF9900" xmlns="http://www.w3.org/2000/svg">
  <path d="M21.9303 20.3489C21.7883 19.1499 21.2125 18.2192 20.2028 17.5566C19.1932 16.8941 17.9548 16.5628 16.4877 16.5628C15.415 16.5628 14.4763 16.7363 13.6718 17.0834C12.8751 17.4304 12.252 17.9076 11.8024 18.515C11.3607 19.1223 11.1398 19.8125 11.1398 20.5855C11.1398 21.2323 11.2936 21.7884 11.6013 22.2538C11.9168 22.7113 12.3191 23.0938 12.8081 23.4014C13.2971 23.7012 13.8098 23.9496 14.3462 24.1468C14.8826 24.3361 15.3755 24.4899 15.8251 24.6083L18.2861 25.2708C18.9171 25.4365 19.6191 25.6652 20.3921 25.9571C21.173 26.2489 21.9184 26.6472 22.6283 27.1521C23.3461 27.649 23.9377 28.2879 24.4031 29.0688C24.8684 29.8497 25.1011 30.808 25.1011 31.9438C25.1011 33.2532 24.758 34.4364 24.0718 35.4933C23.3934 36.5503 22.3996 37.3903 21.0902 38.0135C19.7887 38.6366 18.2072 38.9482 16.3457 38.9482C14.6104 38.9482 13.1078 38.6681 11.8379 38.1081C10.5759 37.5481 9.58201 36.7672 8.85634 35.7655C8.13856 34.7637 7.73234 33.6003 7.63768 32.2751H10.6666C10.7455 33.1901 11.0531 33.9473 11.5894 34.5468C12.1337 35.1384 12.8199 35.5801 13.6481 35.8719C14.4842 36.1559 15.3834 36.2979 16.3457 36.2979C17.4658 36.2979 18.4715 36.1165 19.3628 35.7536C20.2541 35.3829 20.9601 34.8702 21.4807 34.2155C22.0012 33.5529 22.2615 32.7799 22.2615 31.8965C22.2615 31.092 22.0367 30.4373 21.5871 29.9325C21.1375 29.4277 20.546 29.0175 19.8124 28.702C19.0788 28.3865 18.2861 28.1104 17.4342 27.8738L14.4527 27.0219C12.5596 26.4777 11.061 25.7007 9.95668 24.6911C8.85239 23.6815 8.30025 22.3603 8.30025 20.7275C8.30025 19.3708 8.66703 18.1876 9.40059 17.178C10.142 16.1605 11.1359 15.3717 12.3822 14.8117C13.6363 14.2438 15.0364 13.9598 16.5824 13.9598C18.1441 13.9598 19.5324 14.2398 20.7471 14.7999C21.9618 15.352 22.9241 16.1092 23.634 17.0715C24.3518 18.0338 24.7304 19.1263 24.7698 20.3489H21.9303ZM37.4504 20.3489V22.7152H28.0324V20.3489H37.4504ZM30.7773 15.9949H33.5696V33.3163C33.5696 34.1051 33.684 34.6967 33.9127 35.0911C34.1493 35.4776 34.4491 35.7378 34.8119 35.8719C35.1826 35.9981 35.5731 36.0612 35.9832 36.0612C36.2909 36.0612 36.5433 36.0455 36.7405 36.0139C36.9376 35.9745 37.0954 35.9429 37.2137 35.9193L37.7816 38.4276C37.5923 38.4986 37.3281 38.5695 36.9889 38.6405C36.6497 38.7194 36.2199 38.7588 35.6993 38.7588C34.9105 38.7588 34.1375 38.5893 33.3803 38.2501C32.6309 37.9109 32.0078 37.3943 31.5109 36.7002C31.0218 36.006 30.7773 35.1305 30.7773 34.0735V15.9949ZM48.8383 38.9008C47.1976 38.9008 45.7581 38.5104 44.5197 37.7295C43.2892 36.9486 42.3269 35.8562 41.6328 34.4521C40.9466 33.0481 40.6035 31.4075 40.6035 29.5302C40.6035 27.6371 40.9466 25.9847 41.6328 24.5728C42.3269 23.1609 43.2892 22.0645 44.5197 21.2836C45.7581 20.5027 47.1976 20.1123 48.8383 20.1123C50.4789 20.1123 51.9145 20.5027 53.145 21.2836C54.3833 22.0645 55.3456 23.1609 56.0319 24.5728C56.726 25.9847 57.0731 27.6371 57.0731 29.5302C57.0731 31.4075 56.726 33.0481 56.0319 34.4521C55.3456 35.8562 54.3833 36.9486 53.145 37.7295C51.9145 38.5104 50.4789 38.9008 48.8383 38.9008ZM48.8383 36.3925C50.0845 36.3925 51.1099 36.0731 51.9145 35.4342C52.719 34.7953 53.3145 33.9552 53.701 32.914C54.0875 31.8729 54.2808 30.7449 54.2808 29.5302C54.2808 28.3155 54.0875 27.1836 53.701 26.1345C53.3145 25.0855 52.719 24.2375 51.9145 23.5907C51.1099 22.9439 50.0845 22.6206 48.8383 22.6206C47.592 22.6206 46.5666 22.9439 45.762 23.5907C44.9575 24.2375 44.362 25.0855 43.9755 26.1345C43.589 27.1836 43.3957 28.3155 43.3957 29.5302C43.3957 30.7449 43.589 31.8729 43.9755 32.914C44.362 33.9552 44.9575 34.7953 45.762 35.4342C46.5666 36.0731 47.592 36.3925 48.8383 36.3925ZM61.3354 38.5222V20.3489H64.033V23.0938H64.2223C64.5536 22.1946 65.153 21.465 66.0207 20.905C66.8883 20.3449 67.8664 20.0649 68.9549 20.0649C69.16 20.0649 69.4164 20.0689 69.724 20.0768C70.0316 20.0846 70.2643 20.0965 70.4221 20.1123V22.9518C70.3274 22.9282 70.1105 22.8927 69.7713 22.8454C69.44 22.7901 69.089 22.7625 68.7183 22.7625C67.8349 22.7625 67.0461 22.9479 66.352 23.3186C65.6657 23.6815 65.1215 24.1863 64.7192 24.8331C64.3248 25.472 64.1276 26.2016 64.1276 27.0219V38.5222H61.3354ZM80.7984 38.9008C79.0473 38.9008 77.5368 38.5143 76.2669 37.7413C75.0048 36.9604 74.0307 35.8719 73.3445 34.4758C72.6661 33.0718 72.3269 31.439 72.3269 29.5775C72.3269 27.716 72.6661 26.0754 73.3445 24.6556C74.0307 23.2279 74.9851 22.1157 76.2077 21.3191C77.4382 20.5145 78.8738 20.1123 80.5144 20.1123C81.4609 20.1123 82.3956 20.27 83.3185 20.5855C84.2414 20.901 85.0814 21.4137 85.8386 22.1236C86.5958 22.8256 87.1993 23.7564 87.6489 24.9159C88.0985 26.0754 88.3233 27.5031 88.3233 29.1989V30.3821H74.3146V27.9684H85.4837C85.4837 26.943 85.2786 26.0281 84.8684 25.2235C84.4662 24.419 83.8903 23.784 83.141 23.3186C82.3996 22.8532 81.524 22.6206 80.5144 22.6206C79.4022 22.6206 78.4399 22.8966 77.6275 23.4488C76.8229 23.993 76.2038 24.7029 75.7699 25.5784C75.3361 26.454 75.1192 27.3926 75.1192 28.3944V30.0035C75.1192 31.3759 75.3558 32.5394 75.8291 33.4938C76.3102 34.4403 76.9768 35.162 77.8286 35.659C78.6805 36.148 79.6704 36.3925 80.7984 36.3925C81.5319 36.3925 82.1945 36.29 82.7861 36.0849C83.3855 35.8719 83.9022 35.5564 84.336 35.1384C84.7698 34.7124 85.1051 34.184 85.3417 33.5529L88.0393 34.3102C87.7553 35.2251 87.2781 36.0297 86.6077 36.7238C85.9372 37.41 85.109 37.9464 84.123 38.3329C83.1371 38.7115 82.0288 38.9008 80.7984 38.9008ZM95.3631 14.2911V38.5222H92.5708V14.2911H95.3631ZM100.477 38.5222V20.3489H103.27V38.5222H100.477ZM101.897 17.32C101.353 17.32 100.883 17.1346 100.489 16.7639C100.103 16.3932 99.9093 15.9475 99.9093 15.4269C99.9093 14.9064 100.103 14.4607 100.489 14.09C100.883 13.7192 101.353 13.5339 101.897 13.5339C102.441 13.5339 102.907 13.7192 103.293 14.09C103.688 14.4607 103.885 14.9064 103.885 15.4269C103.885 15.9475 103.688 16.3932 103.293 16.7639C102.907 17.1346 102.441 17.32 101.897 17.32ZM116.477 20.3489V22.7152H106.68V20.3489H116.477ZM109.614 38.5222V17.8406C109.614 16.7994 109.859 15.9318 110.348 15.2376C110.837 14.5435 111.472 14.0229 112.253 13.6759C113.034 13.3288 113.858 13.1553 114.725 13.1553C115.412 13.1553 115.972 13.2105 116.406 13.3209C116.839 13.4313 117.163 13.5339 117.376 13.6285L116.571 16.0422C116.429 15.9949 116.232 15.9357 115.98 15.8647C115.735 15.7937 115.412 15.7582 115.009 15.7582C114.087 15.7582 113.42 15.9909 113.01 16.4563C112.608 16.9217 112.406 17.604 112.406 18.5032V38.5222H109.614ZM122.188 45.3372C121.715 45.3372 121.293 45.2978 120.922 45.2189C120.552 45.1479 120.295 45.0769 120.153 45.0059L120.863 42.545C121.541 42.7185 122.141 42.7816 122.662 42.7343C123.182 42.6869 123.644 42.4543 124.046 42.0362C124.456 41.626 124.831 40.9595 125.17 40.0367L125.69 38.6169L118.97 20.3489H121.999L127.016 34.8308H127.205L132.221 20.3489H135.25L127.536 41.1725C127.189 42.1111 126.759 42.8881 126.246 43.5033C125.734 44.1264 125.138 44.5879 124.46 44.8876C123.789 45.1873 123.032 45.3372 122.188 45.3372ZM139.832 38.7115C139.248 38.7115 138.748 38.5025 138.33 38.0844C137.911 37.6664 137.702 37.1655 137.702 36.5818C137.702 35.9981 137.911 35.4973 138.33 35.0792C138.748 34.6612 139.248 34.4521 139.832 34.4521C140.416 34.4521 140.917 34.6612 141.335 35.0792C141.753 35.4973 141.962 35.9981 141.962 36.5818C141.962 36.9683 141.863 37.3233 141.666 37.6467C141.477 37.9701 141.22 38.2304 140.897 38.4276C140.581 38.6169 140.227 38.7115 139.832 38.7115Z" />
  <path d="M21.9303 20.3489L21.3598 20.4164L21.4198 20.9233H21.9303V20.3489ZM20.2028 17.5566L19.8877 18.0369L20.2028 17.5566ZM13.6718 17.0834L13.4443 16.5559L13.4424 16.5567L13.6718 17.0834ZM11.8024 18.515L11.3407 18.1732L11.3378 18.1771L11.8024 18.515ZM11.6013 22.2538L11.122 22.5706L11.1284 22.5799L11.6013 22.2538ZM12.8081 23.4014L12.5022 23.8877L12.5079 23.8912L12.8081 23.4014ZM14.3462 24.1468L14.148 24.686L14.155 24.6885L14.3462 24.1468ZM15.8251 24.6083L15.9745 24.0536L15.9713 24.0527L15.8251 24.6083ZM18.2861 25.2708L18.1368 25.8255L18.1403 25.8264L18.2861 25.2708ZM20.3921 25.9571L20.1892 26.4945L20.191 26.4952L20.3921 25.9571ZM22.6283 27.1521L22.2954 27.6202L22.3013 27.6244L22.6283 27.1521ZM24.4031 29.0688L24.8965 28.7747L24.4031 29.0688ZM24.0718 35.4933L23.59 35.1805L23.5883 35.1831L24.0718 35.4933ZM21.0902 38.0135L20.8434 37.4948L20.8421 37.4953L21.0902 38.0135ZM11.8379 38.1081L11.6049 38.6332L11.6061 38.6337L11.8379 38.1081ZM8.85634 35.7655L8.38939 36.1L8.39113 36.1025L8.85634 35.7655ZM7.63768 32.2751V31.7007H7.02074L7.0647 32.3161L7.63768 32.2751ZM10.6666 32.2751L11.2389 32.2258L11.1936 31.7007H10.6666V32.2751ZM11.5894 34.5468L11.1613 34.9299L11.1667 34.9357L11.5894 34.5468ZM13.6481 35.8719L13.4572 36.4138L13.4634 36.4159L13.6481 35.8719ZM19.3628 35.7536L19.5794 36.2857L19.5834 36.284L19.3628 35.7536ZM21.4807 34.2155L21.9303 34.5731L21.9323 34.5704L21.4807 34.2155ZM21.5871 29.9325L22.0161 29.5504V29.5504L21.5871 29.9325ZM19.8124 28.702L19.5854 29.2297L19.8124 28.702ZM17.4342 27.8738L17.2764 28.4261L17.2805 28.4273L17.4342 27.8738ZM14.4527 27.0219L14.294 27.574L14.2949 27.5742L14.4527 27.0219ZM9.95668 24.6911L9.56906 25.115L9.56906 25.115L9.95668 24.6911ZM9.40059 17.178L8.93633 16.8397L8.93586 16.8404L9.40059 17.178ZM12.3822 14.8117L12.6176 15.3357L12.6191 15.335L12.3822 14.8117ZM20.7471 14.7999L20.5066 15.3215L20.5094 15.3228L20.7471 14.7999ZM23.634 17.0715L23.1717 17.4126L23.1735 17.415L23.634 17.0715ZM24.7698 20.3489V20.9233H25.3631L25.344 20.3304L24.7698 20.3489ZM22.5007 20.2813C22.3388 18.9138 21.6695 17.832 20.518 17.0764L19.8877 18.0369C20.7555 18.6064 21.2378 19.3861 21.3598 20.4164L22.5007 20.2813ZM20.518 17.0764C19.3963 16.3403 18.0425 15.9883 16.4877 15.9883V17.1372C17.8671 17.1372 18.9901 17.4479 19.8877 18.0369L20.518 17.0764ZM16.4877 15.9883C15.3538 15.9883 14.3349 16.1717 13.4443 16.5559L13.8993 17.6108C14.6178 17.3009 15.4761 17.1372 16.4877 17.1372V15.9883ZM13.4424 16.5567C12.5675 16.9379 11.8587 17.4735 11.3407 18.1732L12.2641 18.8568C12.6453 18.3418 13.1828 17.923 13.9012 17.61L13.4424 16.5567ZM11.3378 18.1771C10.8225 18.8857 10.5654 19.6949 10.5654 20.5855H11.7143C11.7143 19.9301 11.8989 19.359 12.267 18.8529L11.3378 18.1771ZM10.5654 20.5855C10.5654 21.3265 10.7429 21.9969 11.1221 22.5705L12.0805 21.937C11.8444 21.5799 11.7143 21.1381 11.7143 20.5855H10.5654ZM11.1284 22.5799C11.4899 23.1041 11.9499 23.5402 12.5022 23.8877L13.114 22.9152C12.6882 22.6474 12.3437 22.3184 12.0742 21.9276L11.1284 22.5799ZM12.5079 23.8912C13.0291 24.2106 13.5759 24.4757 14.148 24.686L14.5444 23.6077C14.0437 23.4236 13.5652 23.1917 13.1083 22.9117L12.5079 23.8912ZM14.155 24.6885C14.7031 24.8819 15.2113 25.0407 15.679 25.1638L15.9713 24.0527C15.5398 23.9392 15.0621 23.7903 14.5374 23.6051L14.155 24.6885ZM15.6758 25.163L18.1368 25.8255L18.4355 24.7161L15.9745 24.0536L15.6758 25.163ZM18.1403 25.8264C18.7477 25.9859 19.4303 26.2079 20.1892 26.4945L20.595 25.4196C19.808 25.1225 19.0866 24.887 18.432 24.7152L18.1403 25.8264ZM20.191 26.4952C20.9231 26.7687 21.6244 27.143 22.2954 27.6202L22.9612 26.6839C22.2125 26.1514 21.423 25.7291 20.5933 25.419L20.191 26.4952ZM22.3013 27.6244C22.9487 28.0725 23.4845 28.6496 23.9096 29.3629L24.8965 28.7747C24.3908 27.9262 23.7435 27.2254 22.9553 26.6797L22.3013 27.6244ZM23.9096 29.3629C24.3102 30.0351 24.5267 30.886 24.5267 31.9438H25.6756C25.6756 30.7301 25.4266 29.6642 24.8965 28.7747L23.9096 29.3629ZM24.5267 31.9438C24.5267 33.1467 24.2133 34.2204 23.59 35.1805L24.5536 35.8061C25.3027 34.6523 25.6756 33.3597 25.6756 31.9438H24.5267ZM23.5883 35.1831C22.9764 36.1366 22.0712 36.9104 20.8434 37.4948L21.3371 38.5322C22.7279 37.8702 23.8105 36.964 24.5552 35.8036L23.5883 35.1831ZM20.8421 37.4953C19.6372 38.0723 18.1454 38.3737 16.3457 38.3737V39.5226C18.2691 39.5226 19.9403 39.2009 21.3383 38.5316L20.8421 37.4953ZM16.3457 38.3737C14.6709 38.3737 13.2507 38.1033 12.0697 37.5825L11.6061 38.6337C12.9649 39.2329 14.55 39.5226 16.3457 39.5226V38.3737ZM12.0709 37.583C10.8905 37.0592 9.98107 36.3389 9.32155 35.4285L8.39113 36.1025C9.18295 37.1955 10.2612 38.0369 11.6049 38.6332L12.0709 37.583ZM9.32329 35.4309C8.6721 34.5221 8.29838 33.4621 8.21067 32.2342L7.0647 32.3161C7.1663 33.7384 7.60501 35.0053 8.38939 36.1L9.32329 35.4309ZM7.63768 32.8496H10.6666V31.7007H7.63768V32.8496ZM10.0943 32.3245C10.1822 33.345 10.5306 34.2248 11.1613 34.9298L12.0175 34.1638C11.5756 33.6698 11.3087 33.0352 11.2389 32.2258L10.0943 32.3245ZM11.1667 34.9357C11.7803 35.6027 12.5488 36.0936 13.4572 36.4137L13.8391 35.3301C13.0911 35.0666 12.4871 34.6741 12.0122 34.1579L11.1667 34.9357ZM13.4634 36.4159C14.3641 36.7218 15.3262 36.8723 16.3457 36.8723V35.7234C15.4406 35.7234 14.6044 35.59 13.8329 35.328L13.4634 36.4159ZM16.3457 36.8723C17.528 36.8723 18.609 36.6807 19.5794 36.2857L19.1462 35.2216C18.334 35.5522 17.4035 35.7234 16.3457 35.7234V36.8723ZM19.5834 36.284C20.5505 35.8818 21.3404 35.3148 21.9303 34.573L21.031 33.858C20.5797 34.4256 19.9577 34.884 19.1422 35.2232L19.5834 36.284ZM21.9323 34.5704C22.5365 33.8015 22.836 32.902 22.836 31.8965H21.6871C21.6871 32.6579 21.466 33.3044 21.029 33.8606L21.9323 34.5704ZM22.836 31.8965C22.836 30.9793 22.5766 30.1798 22.0161 29.5504L21.1582 30.3145C21.4968 30.6948 21.6871 31.2046 21.6871 31.8965H22.836ZM22.0161 29.5504C21.5014 28.9725 20.8363 28.517 20.0394 28.1743L19.5854 29.2297C20.2557 29.518 20.7737 29.8828 21.1582 30.3145L22.0161 29.5504ZM20.0394 28.1743C19.2796 27.8475 18.4622 27.5631 17.588 27.3203L17.2805 28.4273C18.11 28.6577 18.878 28.9254 19.5854 29.2297L20.0394 28.1743ZM17.5921 27.3214L14.6105 26.4696L14.2949 27.5742L17.2764 28.4261L17.5921 27.3214ZM14.6114 26.4698C12.7776 25.9426 11.3659 25.2011 10.3443 24.2671L9.56906 25.115C10.7561 26.2003 12.3416 27.0127 14.294 27.574L14.6114 26.4698ZM10.3443 24.2671C9.37066 23.3769 8.8747 22.2154 8.8747 20.7275H7.72581C7.72581 22.5051 8.33413 23.986 9.56906 25.115L10.3443 24.2671ZM8.8747 20.7275C8.8747 19.481 9.20936 18.4185 9.86532 17.5157L8.93586 16.8404C8.12471 17.9568 7.72581 19.2606 7.72581 20.7275H8.8747ZM9.86485 17.5163C10.5425 16.5863 11.4545 15.8583 12.6176 15.3357L12.1467 14.2877C10.8173 14.8851 9.74156 15.7347 8.93633 16.8397L9.86485 17.5163ZM12.6191 15.335C13.7902 14.8047 15.108 14.5343 16.5824 14.5343V13.3854C14.9647 13.3854 13.4825 13.6829 12.1452 14.2884L12.6191 15.335ZM16.5824 14.5343C18.0749 14.5343 19.3789 14.8016 20.5066 15.3215L20.9876 14.2782C19.6859 13.678 18.2134 13.3854 16.5824 13.3854V14.5343ZM20.5094 15.3228C21.6455 15.8392 22.5265 16.5379 23.1717 17.4125L24.0963 16.7305C23.3218 15.6806 22.2781 14.8648 20.9848 14.2769L20.5094 15.3228ZM23.1735 17.415C23.8197 18.2813 24.16 19.2598 24.1957 20.3674L25.344 20.3304C25.3008 18.9928 24.8839 17.7864 24.0945 16.7281L23.1735 17.415ZM24.7698 19.7744H21.9303V20.9233H24.7698V19.7744ZM37.4503 20.3489H38.0248V19.7744H37.4503V20.3489ZM37.4503 22.7152V23.2896H38.0248V22.7152H37.4503ZM28.0324 22.7152H27.458V23.2896H28.0324V22.7152ZM28.0324 20.3489V19.7744H27.458V20.3489H28.0324ZM30.7773 15.9949V15.4204H30.2029V15.9949H30.7773ZM33.5696 15.9949H34.144V15.4204H33.5696V15.9949ZM33.9127 35.0911L33.4156 35.3793L33.4228 35.391L33.9127 35.0911ZM34.8119 35.8719L34.6128 36.4108L34.6197 36.4133L34.6268 36.4157L34.8119 35.8719ZM36.7405 36.0139L36.8312 36.5811L36.8422 36.5794L36.8531 36.5772L36.7405 36.0139ZM37.2137 35.9193L37.774 35.7924L37.6503 35.2461L37.1011 35.356L37.2137 35.9193ZM37.7816 38.4276L37.9833 38.9654L38.4526 38.7895L38.3419 38.3007L37.7816 38.4276ZM36.9889 38.6405L36.8712 38.0781L36.8588 38.081L36.9889 38.6405ZM33.3803 38.2501L33.1434 38.7734L33.1455 38.7743L33.3803 38.2501ZM31.5109 36.7002L31.0413 37.031L31.0438 37.0345L31.5109 36.7002ZM36.8759 20.3489V22.7152H38.0248V20.3489H36.8759ZM37.4503 22.1408H28.0324V23.2896H37.4503V22.1408ZM28.6068 22.7152V20.3489H27.458V22.7152H28.6068ZM28.0324 20.9233H37.4503V19.7744H28.0324V20.9233ZM30.7773 16.5693H33.5696V15.4204H30.7773V16.5693ZM32.9951 15.9949V33.3163H34.144V15.9949H32.9951ZM32.9951 33.3163C32.9951 34.1418 33.1115 34.8547 33.4158 35.3793L34.4096 34.8028C34.2564 34.5387 34.144 34.0684 34.144 33.3163H32.9951ZM33.4228 35.391C33.7147 35.8678 34.1089 36.2246 34.6128 36.4108L35.011 35.3331C34.7892 35.2511 34.5839 35.0873 34.4026 34.7911L33.4228 35.391ZM34.6268 36.4157C35.0599 36.5632 35.5131 36.6357 35.9832 36.6357V35.4868C35.633 35.4868 35.3054 35.4331 34.997 35.3281L34.6268 36.4157ZM35.9832 36.6357C36.3069 36.6357 36.5925 36.6193 36.8312 36.5811L36.6497 35.4467C36.494 35.4716 36.2748 35.4868 35.9832 35.4868V36.6357ZM36.8531 36.5772C37.0503 36.5378 37.2081 36.5062 37.3264 36.4826L37.1011 35.356C36.9827 35.3796 36.825 35.4112 36.6278 35.4506L36.8531 36.5772ZM36.6535 36.0461L37.2214 38.5544L38.3419 38.3007L37.774 35.7924L36.6535 36.0461ZM37.5799 37.8897C37.4305 37.9457 37.1989 38.0097 36.8712 38.0783L37.1066 39.2028C37.4573 39.1294 37.7541 39.0514 37.9833 38.9654L37.5799 37.8897ZM36.8588 38.081C36.5777 38.1464 36.1954 38.1844 35.6993 38.1844V39.3333C36.2444 39.3333 36.7218 39.2924 37.119 39.2L36.8588 38.081ZM35.6993 38.1844C34.9956 38.1844 34.3024 38.0337 33.6151 37.7258L33.1455 38.7743C33.9726 39.1449 34.8254 39.3333 35.6993 39.3333V38.1844ZM33.6172 37.7268C32.9634 37.4308 32.4184 36.981 31.978 36.3658L31.0438 37.0345C31.5972 37.8075 32.2985 38.391 33.1434 38.7734L33.6172 37.7268ZM31.9805 36.3693C31.5748 35.7935 31.3518 35.0413 31.3518 34.0735H30.2029C30.2029 35.2197 30.4689 36.2186 31.0413 37.031L31.9805 36.3693ZM31.3518 34.0735V15.9949H30.2029V34.0735H31.3518ZM44.5197 37.7295L44.2119 38.2145L44.2133 38.2154L44.5197 37.7295ZM41.6328 34.4521L41.1167 34.7044L41.1179 34.7067L41.6328 34.4521ZM41.6328 24.5728L41.1173 24.3193L41.1162 24.3217L41.6328 24.5728ZM44.5197 21.2836L44.2133 20.7977L44.2119 20.7986L44.5197 21.2836ZM53.145 21.2836L52.8372 21.7686L52.8386 21.7695L53.145 21.2836ZM56.0319 24.5728L55.5152 24.8239L55.5164 24.8262L56.0319 24.5728ZM56.0319 34.4521L55.5169 34.1976L55.5158 34.1999L56.0319 34.4521ZM53.145 37.7295L52.8386 37.2436L52.8372 37.2445L53.145 37.7295ZM51.9145 35.4342L51.5572 34.9843L51.9145 35.4342ZM53.701 32.914L54.2396 33.114L53.701 32.914ZM53.701 26.1345L54.2401 25.9359L53.701 26.1345ZM51.9145 23.5907L52.2744 23.143L51.9145 23.5907ZM45.762 23.5907L45.4021 23.143L45.762 23.5907ZM43.9755 26.1345L43.4364 25.9359L43.9755 26.1345ZM43.9755 32.914L43.4369 33.114L43.9755 32.914ZM45.762 35.4342L46.1193 34.9843L45.762 35.4342ZM48.8383 38.3264C47.2926 38.3264 45.962 37.9598 44.8261 37.2436L44.2133 38.2154C45.5542 39.0609 47.1026 39.4753 48.8383 39.4753V38.3264ZM44.8275 37.2445C43.6925 36.5242 42.7989 35.5146 42.1478 34.1976L41.1179 34.7067C41.855 36.1978 42.8859 37.373 44.2119 38.2145L44.8275 37.2445ZM42.1489 34.1999C41.508 32.8887 41.1779 31.3374 41.1779 29.5302H40.029C40.029 31.4775 40.3851 33.2076 41.1167 34.7044L42.1489 34.1999ZM41.1779 29.5302C41.1779 27.7065 41.5083 26.1431 42.1495 24.8239L41.1162 24.3217C40.3849 25.8263 40.029 27.5678 40.029 29.5302H41.1779ZM42.1483 24.8262C42.7997 23.5013 43.6934 22.4884 44.8275 21.7686L44.2119 20.7986C42.8851 21.6406 41.8542 22.8204 41.1173 24.3193L42.1483 24.8262ZM44.8261 21.7695C45.962 21.0532 47.2926 20.6867 48.8383 20.6867V19.5378C47.1026 19.5378 45.5542 19.9522 44.2133 20.7977L44.8261 21.7695ZM48.8383 20.6867C50.384 20.6867 51.7099 21.0533 52.8372 21.7686L53.4528 20.7986C52.119 19.9521 50.5738 19.5378 48.8383 19.5378V20.6867ZM52.8386 21.7695C53.9797 22.4891 54.8723 23.5011 55.5152 24.8239L56.5485 24.3217C55.819 22.8207 54.7869 21.6398 53.4514 20.7977L52.8386 21.7695ZM55.5164 24.8262C56.1646 26.1448 56.4986 27.7074 56.4986 29.5302H57.6475C57.6475 27.5669 57.2874 25.8245 56.5474 24.3193L55.5164 24.8262ZM56.4986 29.5302C56.4986 31.3365 56.1649 32.8869 55.5169 34.1976L56.5468 34.7067C57.2871 33.2093 57.6475 31.4784 57.6475 29.5302H56.4986ZM55.5158 34.1999C54.8731 35.5148 53.9806 36.5235 52.8386 37.2436L53.4514 38.2154C54.7861 37.3737 55.8182 36.1975 56.548 34.7044L55.5158 34.1999ZM52.8372 37.2445C51.7099 37.9598 50.384 38.3264 48.8383 38.3264V39.4753C50.5738 39.4753 52.119 39.0609 53.4528 38.2145L52.8372 37.2445ZM48.8383 36.967C50.1857 36.967 51.3453 36.6197 52.2717 35.884L51.5572 34.9843C50.8746 35.5264 49.9833 35.8181 48.8383 35.8181V36.967ZM52.2717 35.884C53.165 35.1746 53.8197 34.2452 54.2396 33.114L53.1625 32.7141C52.8094 33.6653 52.273 34.4159 51.5572 34.9843L52.2717 35.884ZM54.2396 33.114C54.652 32.0031 54.8552 30.8068 54.8552 29.5302H53.7064C53.7064 30.6831 53.5231 31.7427 53.1625 32.7141L54.2396 33.114ZM54.8552 29.5302C54.8552 28.2536 54.6519 27.0539 54.2401 25.9359L53.162 26.3331C53.5231 27.3133 53.7064 28.3774 53.7064 29.5302H54.8552ZM54.2401 25.9359C53.8207 24.7975 53.1668 23.8605 52.2744 23.143L51.5546 24.0384C52.2712 24.6146 52.8084 25.3734 53.162 26.3331L54.2401 25.9359ZM52.2744 23.143C51.3479 22.3982 50.1873 22.0461 48.8383 22.0461V23.195C49.9817 23.195 50.872 23.4897 51.5546 24.0384L52.2744 23.143ZM48.8383 22.0461C47.4892 22.0461 46.3286 22.3982 45.4021 23.143L46.122 24.0384C46.8046 23.4897 47.6948 23.195 48.8383 23.195V22.0461ZM45.4021 23.143C44.5097 23.8605 43.8559 24.7975 43.4364 25.9359L44.5145 26.3331C44.8681 25.3734 45.4053 24.6146 46.122 24.0384L45.4021 23.143ZM43.4364 25.9359C43.0246 27.0539 42.8213 28.2536 42.8213 29.5302H43.9702C43.9702 28.3774 44.1534 27.3133 44.5145 26.3331L43.4364 25.9359ZM42.8213 29.5302C42.8213 30.8068 43.0246 32.0031 43.4369 33.114L44.514 32.7141C44.1534 31.7427 43.9702 30.6831 43.9702 29.5302H42.8213ZM43.4369 33.114C43.8569 34.2452 44.5115 35.1746 45.4048 35.884L46.1193 34.9843C45.4035 34.4159 44.8671 33.6653 44.514 32.7141L43.4369 33.114ZM45.4048 35.884C46.3312 36.6197 47.4908 36.967 48.8383 36.967V35.8181C47.6932 35.8181 46.8019 35.5264 46.1193 34.9843L45.4048 35.884ZM61.3354 38.5222H60.7609V39.0967H61.3354V38.5222ZM61.3354 20.3489V19.7744H60.7609V20.3489H61.3354ZM64.033 20.3489H64.6074V19.7744H64.033V20.3489ZM64.033 23.0938H63.4585V23.6683H64.033V23.0938ZM64.2223 23.0938V23.6683H64.6228L64.7613 23.2924L64.2223 23.0938ZM66.0207 20.905L65.7092 20.4223L66.0207 20.905ZM70.4221 20.1123H70.9965V19.5924L70.4792 19.5407L70.4221 20.1123ZM70.4221 22.9518L70.2827 23.5091L70.9965 23.6876V22.9518H70.4221ZM69.7713 22.8454L69.6769 23.412L69.6844 23.4132L69.6919 23.4143L69.7713 22.8454ZM66.352 23.3186L66.6205 23.8264L66.6226 23.8253L66.352 23.3186ZM64.7192 24.8331L64.2314 24.5297L64.2304 24.5313L64.7192 24.8331ZM64.1276 38.5222V39.0967H64.7021V38.5222H64.1276ZM61.9098 38.5222V20.3489H60.7609V38.5222H61.9098ZM61.3354 20.9233H64.033V19.7744H61.3354V20.9233ZM63.4585 20.3489V23.0938H64.6074V20.3489H63.4585ZM64.033 23.6683H64.2223V22.5194H64.033V23.6683ZM64.7613 23.2924C65.0461 22.5193 65.5606 21.8857 66.3322 21.3876L65.7092 20.4223C64.7455 21.0443 64.061 21.8699 63.6833 22.8952L64.7613 23.2924ZM66.3322 21.3876C67.1019 20.8908 67.9707 20.6394 68.9549 20.6394V19.4905C67.7622 19.4905 66.6748 19.7991 65.7092 20.4223L66.3322 21.3876ZM68.9549 20.6394C69.1533 20.6394 69.4044 20.6432 69.7093 20.651L69.7387 19.5025C69.4283 19.4945 69.1667 19.4905 68.9549 19.4905V20.6394ZM69.7093 20.651C70.0132 20.6588 70.2288 20.6702 70.3649 20.6838L70.4792 19.5407C70.2998 19.5227 70.05 19.5105 69.7387 19.5025L69.7093 20.651ZM69.8476 20.1123V22.9518H70.9965V20.1123H69.8476ZM70.5614 22.3945C70.4311 22.362 70.1813 22.3225 69.8507 22.2764L69.6919 23.4143C70.0397 23.4628 70.2237 23.4944 70.2827 23.5091L70.5614 22.3945ZM69.8658 22.2787C69.5002 22.2178 69.1174 22.1881 68.7183 22.1881V23.337C69.0606 23.337 69.3798 23.3625 69.6769 23.412L69.8658 22.2787ZM68.7183 22.1881C67.7522 22.1881 66.8685 22.3915 66.0814 22.8119L66.6226 23.8253C67.2237 23.5043 67.9175 23.337 68.7183 23.337V22.1881ZM66.0835 22.8108C65.3091 23.2202 64.6885 23.7948 64.2314 24.5297L65.207 25.1364C65.5545 24.5777 66.0224 24.1427 66.6205 23.8264L66.0835 22.8108ZM64.2304 24.5313C63.7749 25.2692 63.5532 26.1052 63.5532 27.0219H64.7021C64.7021 26.2979 64.8748 25.6747 65.208 25.1348L64.2304 24.5313ZM63.5532 27.0219V38.5222H64.7021V27.0219H63.5532ZM64.1276 37.9478H61.3354V39.0967H64.1276V37.9478ZM76.2669 37.7413L75.9646 38.2298L75.9682 38.232L76.2669 37.7413ZM73.3445 34.4758L72.8272 34.7257L72.8289 34.7292L73.3445 34.4758ZM73.3445 24.6556L72.8267 24.4067L72.8261 24.4079L73.3445 24.6556ZM76.2077 21.3191L76.5213 21.8004L76.5221 21.7999L76.2077 21.3191ZM83.3185 20.5855L83.5043 20.042L83.3185 20.5855ZM85.8386 22.1236L85.4457 22.5427L85.4481 22.5449L85.8386 22.1236ZM87.6488 24.9159L88.1844 24.7082L87.6488 24.9159ZM88.3232 30.3821V30.9565H88.8977V30.3821H88.3232ZM74.3146 30.3821H73.7402V30.9565H74.3146V30.3821ZM74.3146 27.9684V27.394H73.7402V27.9684H74.3146ZM85.4837 27.9684V28.5429H86.0581V27.9684H85.4837ZM84.8684 25.2235L84.3546 25.4804L84.3567 25.4844L84.8684 25.2235ZM83.141 23.3186L82.8356 23.8052L82.8379 23.8066L83.141 23.3186ZM77.6275 23.4488L77.9494 23.9246L77.9504 23.9239L77.6275 23.4488ZM75.7699 25.5784L75.2552 25.3234L75.7699 25.5784ZM75.8291 33.4938L75.3144 33.749L75.317 33.7541L75.8291 33.4938ZM77.8286 35.659L77.5392 36.1552L77.5426 36.1572L77.8286 35.659ZM82.7861 36.0849L82.9742 36.6277L82.9784 36.6262L82.7861 36.0849ZM84.336 35.1384L84.7346 35.552L84.7385 35.5483L84.336 35.1384ZM85.3417 33.5529L85.4969 32.9999L84.989 32.8573L84.8038 33.3512L85.3417 33.5529ZM88.0393 34.3102L88.5879 34.4804L88.7629 33.9166L88.1945 33.7571L88.0393 34.3102ZM86.6077 36.7238L87.0186 37.1253L87.0208 37.1229L86.6077 36.7238ZM84.123 38.3329L84.329 38.8692L84.3327 38.8677L84.123 38.3329ZM80.7984 38.3264C79.1337 38.3264 77.7305 37.9598 76.5655 37.2506L75.9682 38.232C77.343 39.0689 78.9609 39.4753 80.7984 39.4753V38.3264ZM76.5691 37.2528C75.4034 36.5315 74.501 35.5266 73.86 34.2224L72.8289 34.7292C73.5603 36.2173 74.6063 37.3894 75.9646 38.2298L76.5691 37.2528ZM73.8617 34.2259C73.2276 32.9135 72.9014 31.3691 72.9014 29.5775H71.7525C71.7525 31.509 72.1046 33.2301 72.8272 34.7257L73.8617 34.2259ZM72.9014 29.5775C72.9014 27.7862 73.2275 26.2328 73.8628 24.9032L72.8261 24.4079C72.1047 25.918 71.7525 27.6459 71.7525 29.5775H72.9014ZM73.8622 24.9044C74.5069 23.5631 75.3942 22.5348 76.5213 21.8004L75.8941 20.8378C74.576 21.6967 73.5544 22.8927 72.8267 24.4067L73.8622 24.9044ZM76.5221 21.7999C77.6485 21.0634 78.972 20.6867 80.5144 20.6867V19.5378C78.7755 19.5378 77.2279 19.9657 75.8933 20.8383L76.5221 21.7999ZM80.5144 20.6867C81.3958 20.6867 82.2678 20.8334 83.1327 21.1291L83.5043 20.042C82.5235 19.7066 81.5261 19.5378 80.5144 19.5378V20.6867ZM83.1327 21.1291C83.9736 21.4166 84.744 21.8849 85.4457 22.5427L86.2315 21.7045C85.4188 20.9426 84.5091 20.3855 83.5043 20.042L83.1327 21.1291ZM85.4481 22.5449C86.1296 23.1767 86.6888 24.0289 87.1133 25.1236L88.1844 24.7082C87.7097 23.4838 87.0621 22.4745 86.2292 21.7024L85.4481 22.5449ZM87.1133 25.1236C87.5297 26.1975 87.7488 27.5499 87.7488 29.1989H88.8977C88.8977 27.4562 88.6672 25.9532 88.1844 24.7082L87.1133 25.1236ZM87.7488 29.1989V30.3821H88.8977V29.1989H87.7488ZM88.3232 29.8076H74.3146V30.9565H88.3232V29.8076ZM74.8891 30.3821V27.9684H73.7402V30.3821H74.8891ZM74.3146 28.5429H85.4837V27.394H74.3146V28.5429ZM86.0581 27.9684C86.0581 26.8647 85.8368 25.8583 85.3802 24.9626L84.3567 25.4844C84.7203 26.1978 84.9092 27.0213 84.9092 27.9684H86.0581ZM85.3822 24.9666C84.9334 24.069 84.2855 23.3532 83.4441 22.8306L82.8379 23.8066C83.4952 24.2148 83.9989 24.7689 84.3546 25.4804L85.3822 24.9666ZM83.4464 22.8321C82.6001 22.3009 81.6152 22.0461 80.5144 22.0461V23.195C81.4329 23.195 82.199 23.4056 82.8356 23.8052L83.4464 22.8321ZM80.5144 22.0461C79.3028 22.0461 78.2245 22.3485 77.3046 22.9737L77.9504 23.9239C78.6553 23.4448 79.5016 23.195 80.5144 23.195V22.0461ZM77.3056 22.973C76.4183 23.5732 75.7329 24.3594 75.2552 25.3234L76.2847 25.8335C76.6746 25.0464 77.2276 24.4128 77.9494 23.9246L77.3056 22.973ZM75.2552 25.3234C74.7811 26.2803 74.5447 27.3065 74.5447 28.3944H75.6936C75.6936 27.4788 75.8911 26.6277 76.2847 25.8335L75.2552 25.3234ZM74.5447 28.3944V30.0035H75.6936V28.3944H74.5447ZM74.5447 30.0035C74.5447 31.4398 74.7922 32.6958 75.3144 33.749L76.3437 33.2386C75.9195 32.383 75.6936 31.3121 75.6936 30.0035H74.5447ZM75.317 33.7541C75.8442 34.7911 76.5846 35.5983 77.5392 36.1552L78.1181 35.1628C77.3689 34.7257 76.7763 34.0895 76.3412 33.2335L75.317 33.7541ZM77.5426 36.1572C78.4938 36.7032 79.5851 36.967 80.7984 36.967V35.8181C79.7557 35.8181 78.8672 35.5928 78.1146 35.1608L77.5426 36.1572ZM80.7984 36.967C81.5852 36.967 82.3128 36.857 82.9742 36.6277L82.5979 35.5422C82.0762 35.723 81.4786 35.8181 80.7984 35.8181V36.967ZM82.9784 36.6262C83.6505 36.3874 84.2386 36.03 84.7346 35.552L83.9374 34.7247C83.5657 35.0829 83.1206 35.3565 82.5938 35.5436L82.9784 36.6262ZM84.7385 35.5483C85.2383 35.0576 85.6167 34.4555 85.8796 33.7546L84.8038 33.3512C84.5934 33.9124 84.3014 34.3673 83.9336 34.7285L84.7385 35.5483ZM85.1864 34.106L87.884 34.8632L88.1945 33.7571L85.4969 32.9999L85.1864 34.106ZM87.4907 34.1399C87.2335 34.9684 86.803 35.6947 86.1945 36.3247L87.0208 37.1229C87.7533 36.3646 88.2771 35.4819 88.5879 34.4804L87.4907 34.1399ZM86.1968 36.3224C85.5889 36.9446 84.8315 37.4382 83.9134 37.7981L84.3327 38.8677C85.3865 38.4546 86.2856 37.8755 87.0186 37.1253L86.1968 36.3224ZM83.9171 37.7966C83.0068 38.1462 81.9699 38.3264 80.7984 38.3264V39.4753C82.0878 39.4753 83.2674 39.2768 84.329 38.8692L83.9171 37.7966ZM95.3631 14.2911H95.9375V13.7167H95.3631V14.2911ZM95.3631 38.5222V39.0967H95.9375V38.5222H95.3631ZM92.5708 38.5222H91.9964V39.0967H92.5708V38.5222ZM92.5708 14.2911V13.7167H91.9964V14.2911H92.5708ZM94.7886 14.2911V38.5222H95.9375V14.2911H94.7886ZM95.3631 37.9478H92.5708V39.0967H95.3631V37.9478ZM93.1452 38.5222V14.2911H91.9964V38.5222H93.1452ZM92.5708 14.8656H95.3631V13.7167H92.5708V14.8656ZM100.477 38.5222H99.9028V39.0967H100.477V38.5222ZM100.477 20.3489V19.7744H99.9028V20.3489H100.477ZM103.27 20.3489H103.844V19.7744H103.27V20.3489ZM103.27 38.5222V39.0967H103.844V38.5222H103.27ZM100.489 16.7639L100.091 17.1785L100.096 17.1825L100.489 16.7639ZM100.489 14.09L100.096 13.6714L100.091 13.6754L100.489 14.09ZM103.293 14.09L102.896 14.5046L102.9 14.5085L103.293 14.09ZM103.293 16.7639L102.9 16.3453L102.896 16.3493L103.293 16.7639ZM101.052 38.5222V20.3489H99.9028V38.5222H101.052ZM100.477 20.9233H103.27V19.7744H100.477V20.9233ZM102.695 20.3489V38.5222H103.844V20.3489H102.695ZM103.27 37.9478H100.477V39.0967H103.27V37.9478ZM101.897 16.7456C101.498 16.7456 101.17 16.6153 100.883 16.3454L100.096 17.1825C100.597 17.6539 101.207 17.8944 101.897 17.8944V16.7456ZM100.887 16.3493C100.61 16.0834 100.484 15.786 100.484 15.4269H99.3349C99.3349 16.109 99.5957 16.7029 100.091 17.1785L100.887 16.3493ZM100.484 15.4269C100.484 15.0678 100.61 14.7704 100.887 14.5045L100.091 13.6754C99.5957 14.151 99.3349 14.7449 99.3349 15.4269H100.484ZM100.883 14.5085C101.17 14.2386 101.498 14.1083 101.897 14.1083V12.9594C101.207 12.9594 100.597 13.1999 100.096 13.6714L100.883 14.5085ZM101.897 14.1083C102.296 14.1083 102.618 14.2383 102.896 14.5045L103.691 13.6754C103.195 13.2002 102.587 12.9594 101.897 12.9594V14.1083ZM102.9 14.5085C103.184 14.7755 103.31 15.0718 103.31 15.4269H104.459C104.459 14.7409 104.191 14.1458 103.687 13.6714L102.9 14.5085ZM103.31 15.4269C103.31 15.7821 103.184 16.0783 102.9 16.3454L103.687 17.1825C104.191 16.708 104.459 16.113 104.459 15.4269H103.31ZM102.896 16.3493C102.618 16.6156 102.296 16.7456 101.897 16.7456V17.8944C102.587 17.8944 103.195 17.6536 103.691 17.1785L102.896 16.3493ZM116.477 20.3489H117.051V19.7744H116.477V20.3489ZM116.477 22.7152V23.2896H117.051V22.7152H116.477ZM106.68 22.7152H106.106V23.2896H106.68V22.7152ZM106.68 20.3489V19.7744H106.106V20.3489H106.68ZM109.614 38.5222H109.04V39.0967H109.614V38.5222ZM110.348 15.2376L109.878 14.9068L110.348 15.2376ZM112.253 13.6759L112.019 13.1509L112.253 13.6759ZM116.406 13.3209L116.264 13.8776V13.8776L116.406 13.3209ZM117.376 13.6285L117.921 13.8102L118.086 13.3154L117.609 13.1036L117.376 13.6285ZM116.571 16.0422L116.39 16.5871L116.935 16.7688L117.116 16.2238L116.571 16.0422ZM115.98 15.8647L115.819 16.4164L115.824 16.4177L115.98 15.8647ZM113.01 16.4563L112.579 16.0764L112.575 16.0806L113.01 16.4563ZM112.406 38.5222V39.0967H112.981V38.5222H112.406ZM115.902 20.3489V22.7152H117.051V20.3489H115.902ZM116.477 22.1408H106.68V23.2896H116.477V22.1408ZM107.254 22.7152V20.3489H106.106V22.7152H107.254ZM106.68 20.9233H116.477V19.7744H106.68V20.9233ZM110.189 38.5222V17.8406H109.04V38.5222H110.189ZM110.189 17.8406C110.189 16.8907 110.411 16.1457 110.817 15.5685L109.878 14.9068C109.307 15.7178 109.04 16.7081 109.04 17.8406H110.189ZM110.817 15.5685C111.246 14.9598 111.799 14.506 112.486 14.2008L112.019 13.1509C111.144 13.5399 110.427 14.1272 109.878 14.9068L110.817 15.5685ZM112.486 14.2008C113.192 13.8869 113.937 13.7297 114.725 13.7297V12.5808C113.779 12.5808 112.875 12.7707 112.019 13.1509L112.486 14.2008ZM114.725 13.7297C115.386 13.7297 115.894 13.7835 116.264 13.8776L116.547 12.7642C116.049 12.6375 115.437 12.5808 114.725 12.5808V13.7297ZM116.264 13.8776C116.689 13.9859 116.975 14.079 117.142 14.1535L117.609 13.1036C117.351 12.9888 116.989 12.8768 116.547 12.7642L116.264 13.8776ZM116.831 13.4469L116.026 15.8605L117.116 16.2238L117.921 13.8102L116.831 13.4469ZM116.753 15.4972C116.598 15.4456 116.391 15.3836 116.135 15.3117L115.824 16.4177C116.073 16.4878 116.26 16.5441 116.39 16.5871L116.753 15.4972ZM116.14 15.313C115.822 15.2208 115.438 15.1838 115.009 15.1838V16.3327C115.385 16.3327 115.648 16.3666 115.819 16.4164L116.14 15.313ZM115.009 15.1838C114.003 15.1838 113.142 15.4372 112.579 16.0765L113.441 16.8361C113.698 16.5446 114.17 16.3327 115.009 16.3327V15.1838ZM112.575 16.0806C112.049 16.6894 111.832 17.5283 111.832 18.5032H112.981C112.981 17.6796 113.166 17.1539 113.444 16.8319L112.575 16.0806ZM111.832 18.5032V38.5222H112.981V18.5032H111.832ZM112.406 37.9478H109.614V39.0967H112.406V37.9478ZM120.922 45.2189L121.042 44.6569L121.03 44.6547L120.922 45.2189ZM120.153 45.0059L119.601 44.8467L119.469 45.306L119.896 45.5197L120.153 45.0059ZM120.863 42.545L121.005 41.9884L120.466 41.8503L120.311 42.3857L120.863 42.545ZM122.662 42.7343L122.609 42.1622L122.662 42.7343ZM124.046 42.0362L123.64 41.6299L123.632 41.6379L124.046 42.0362ZM125.17 40.0367L125.709 40.2348L125.709 40.2344L125.17 40.0367ZM125.69 38.6169L126.23 38.8146L126.302 38.6165L126.23 38.4185L125.69 38.6169ZM118.97 20.3489V19.7744H118.147L118.431 20.5472L118.97 20.3489ZM121.999 20.3489L122.542 20.1609L122.408 19.7744H121.999V20.3489ZM127.016 34.8308L126.473 35.0188L126.607 35.4052H127.016V34.8308ZM127.205 34.8308V35.4052H127.614L127.748 35.0188L127.205 34.8308ZM132.221 20.3489V19.7744H131.812L131.679 20.1609L132.221 20.3489ZM135.25 20.3489L135.789 20.5484L136.076 19.7744H135.25V20.3489ZM127.536 41.1725L126.997 40.9729L126.997 40.9733L127.536 41.1725ZM126.246 43.5033L125.805 43.1356L125.803 43.1383L126.246 43.5033ZM124.46 44.8876L124.228 44.3622L124.225 44.3632L124.46 44.8876ZM122.188 44.7628C121.746 44.7628 121.365 44.7258 121.042 44.657L120.803 45.7808C121.221 45.8698 121.684 45.9117 122.188 45.9117V44.7628ZM121.03 44.6547C120.66 44.5838 120.474 44.5241 120.41 44.4921L119.896 45.5197C120.116 45.6297 120.443 45.7121 120.814 45.7831L121.03 44.6547ZM120.705 45.1651L121.415 42.7042L120.311 42.3857L119.601 44.8467L120.705 45.1651ZM120.721 43.1015C121.442 43.2861 122.11 43.3612 122.714 43.3064L122.609 42.1622C122.172 42.202 121.641 42.1509 121.005 41.9884L120.721 43.1015ZM122.714 43.3064C123.387 43.2451 123.973 42.9404 124.46 42.4345L123.632 41.6379C123.314 41.9681 122.977 42.1288 122.609 42.1622L122.714 43.3064ZM124.452 42.4424C124.948 41.946 125.358 41.1888 125.709 40.2348L124.631 39.8385C124.303 40.7303 123.964 41.3061 123.64 41.63L124.452 42.4424ZM125.709 40.2344L126.23 38.8146L125.151 38.4191L124.63 39.8389L125.709 40.2344ZM126.23 38.4185L119.509 20.1506L118.431 20.5472L125.151 38.8152L126.23 38.4185ZM118.97 20.9233H121.999V19.7744H118.97V20.9233ZM121.456 20.5369L126.473 35.0188L127.558 34.6427L122.542 20.1609L121.456 20.5369ZM127.016 35.4052H127.205V34.2563H127.016V35.4052ZM127.748 35.0188L132.764 20.5369L131.679 20.1609L126.662 34.6427L127.748 35.0188ZM132.221 20.9233H135.25V19.7744H132.221V20.9233ZM134.712 20.1493L126.997 40.9729L128.075 41.372L135.789 20.5484L134.712 20.1493ZM126.997 40.9733C126.668 41.8653 126.267 42.5813 125.805 43.1356L126.688 43.8711C127.251 43.1949 127.711 42.357 128.075 41.3717L126.997 40.9733ZM125.803 43.1383C125.342 43.6984 124.817 44.1018 124.228 44.3622L124.692 45.4131C125.46 45.074 126.126 44.5545 126.69 43.8683L125.803 43.1383ZM124.225 44.3632C123.639 44.6254 122.963 44.7628 122.188 44.7628V45.9117C123.101 45.9117 123.94 45.7493 124.694 45.412L124.225 44.3632ZM138.329 38.0844L138.736 37.6783L138.329 38.0844ZM141.335 35.0792L141.741 34.673L141.335 35.0792ZM141.666 37.6467L141.175 37.3476L141.17 37.3565L141.666 37.6467ZM140.897 38.4276L141.193 38.9202L141.196 38.918L140.897 38.4276ZM139.832 38.1371C139.403 38.1371 139.048 37.9901 138.736 37.6783L137.923 38.4906C138.448 39.0149 139.094 39.286 139.832 39.286V38.1371ZM138.736 37.6783C138.424 37.3664 138.277 37.011 138.277 36.5818H137.128C137.128 37.3201 137.399 37.9664 137.923 38.4906L138.736 37.6783ZM138.277 36.5818C138.277 36.1527 138.424 35.7973 138.736 35.4854L137.923 34.673C137.399 35.1972 137.128 35.8436 137.128 36.5818H138.277ZM138.736 35.4854C139.048 35.1735 139.403 35.0266 139.832 35.0266V33.8777C139.094 33.8777 138.448 34.1488 137.923 34.673L138.736 35.4854ZM139.832 35.0266C140.261 35.0266 140.617 35.1735 140.929 35.4854L141.741 34.673C141.217 34.1488 140.57 33.8777 139.832 33.8777V35.0266ZM140.929 35.4854C141.24 35.7973 141.387 36.1527 141.387 36.5818H142.536C142.536 35.8436 142.265 35.1972 141.741 34.673L140.929 35.4854ZM141.387 36.5818C141.387 36.8651 141.317 37.1162 141.176 37.3476L142.156 37.9457C142.41 37.5303 142.536 37.0716 142.536 36.5818H141.387ZM141.17 37.3565C141.029 37.597 140.841 37.7888 140.598 37.9371L141.196 38.918C141.6 38.6719 141.924 38.3432 142.162 37.9369L141.17 37.3565ZM140.601 37.935C140.382 38.0669 140.13 38.1371 139.832 38.1371V39.286C140.323 39.286 140.781 39.1669 141.193 38.9201L140.601 37.935Z" />
  </svg>
  